#N canvas 49 225 549 352 10;
#X obj 102 152 dac~;
#X obj 105 106 adc~;
#X obj 196 45 netreceive 5001 1;
#X msg 32 131 \; pd dsp 1;
#X obj 58 10 loadbang;
#X obj 31 50 delay 100;
#X connect 1 0 0 0;
#X connect 4 0 5 0;
#X connect 5 0 3 0;
